<svg viewBox="0 0 59.2471 48" xmlns="http://www.w3.org/2000/svg" xmlns:xlink="http://www.w3.org/1999/xlink" width="59.247101" height="48.000000" fill="none" customFrame="#000000">
	<defs>
		<clipPath id="clipPath_0">
			<rect width="49.102074" height="30.000000" x="5.000000" y="0.000000" fill="rgb(255,255,255)" />
		</clipPath>
	</defs>
	<g id="Logo">
		<g id="Component 1" customFrame="url(#clipPath_0)">
			<rect id="Component 1" width="49.102074" height="30.000000" x="5.000000" y="0.000000" fill="rgb(255,255,255)" fill-opacity="0" />
			<path id="Ellipse 4" d="M46 1.5C46 7.46737 44 13.5 41 17.4099C37 21.5 37 24 25.5222 24C14.0444 24 14 22.1151 9.61232 17.4099C5.22463 12.7047 5 7.96737 5 2L9 2C9 10.5 12.4388 14.5834 12.4388 14.5834C12.4388 14.5834 15.5222 20.0027 25.5222 20.0027C35.5222 20.0027 38 14.5834 38 14.5834C38 14.5834 41.4321 8.5 41.4321 1.5L46 1.5Z" fill="rgb(46.75,32.6432,5.25937)" fill-rule="nonzero" />
			<path id="Ellipse 5" d="M44.3009 13.1707C45.7188 14.0286 47.3371 14.2748 48.8481 13.9865C50.4764 13.6781 51.8454 12.7806 52.7775 11.557C53.7836 10.2401 54.2032 8.65788 54.0798 7.12463C53.9493 5.47252 53.205 4.01459 52.0892 2.95573C50.8887 1.8132 49.3611 1.22509 47.8235 1.18205C46.167 1.13333 44.6371 1.71576 43.4628 2.70932L45.6146 5.24923C46.2277 4.72982 46.9834 4.48719 47.7289 4.5087C48.5322 4.53073 49.2567 4.8548 49.7972 5.36867C50.3804 5.92149 50.7033 6.64655 50.7625 7.39003C50.8273 8.19097 50.5835 8.94627 50.131 9.53918C49.6444 10.1787 48.9585 10.578 48.2258 10.7172C47.4365 10.8682 46.6593 10.7074 46.021 10.3216C45.3326 9.90702 44.8615 9.26825 44.6433 8.55506L41.4596 9.5273C41.9436 11.1123 42.9837 12.3762 44.3009 13.1707Z" fill="rgb(46.75,32.6432,5.25937)" fill-rule="evenodd" />
			<path id="Ellipse 6" d="M39 1.59495C39 5.94584 37.525 10.1185 34.8995 13.1951C32.274 16.2716 28.713 18 25 18C21.287 18 17.726 16.2716 15.1005 13.1951C12.475 10.1185 11 5.94584 11 1.59495C11 1.59495 19 5.18358 25 1.59495C31 -1.99369 39 1.59495 39 1.59495Z" fill="rgb(244.375,174.097,37.6745)" fill-rule="nonzero" />
			<rect id="Rectangle 1" width="47.000000" height="3.000000" x="6.000000" y="27.000000" rx="1.500000" fill="rgb(46.75,32.6432,5.25937)" />
		</g>
		<path id="Cafe Street" d="M5.436 43.66C4.484 43.66 3.656 43.488 2.952 43.144C2.248 42.792 1.708 42.296 1.332 41.656C0.956 41.016 0.768 40.272 0.768 39.424C0.768 38.248 0.988 37.204 1.428 36.292C1.876 35.38 2.48 34.676 3.24 34.18C4 33.676 4.844 33.424 5.772 33.424C6.636 33.424 7.292 33.648 7.74 34.096C8.188 34.536 8.412 35.12 8.412 35.848C8.412 36.336 8.324 36.728 8.148 37.024C7.98 37.32 7.736 37.468 7.416 37.468C7.192 37.468 7.016 37.416 6.888 37.312C6.76 37.208 6.696 37.056 6.696 36.856C6.696 36.784 6.712 36.652 6.744 36.46C6.792 36.22 6.816 36.028 6.816 35.884C6.816 35.156 6.428 34.792 5.652 34.792C5.124 34.792 4.62 34.964 4.14 35.308C3.66 35.652 3.272 36.16 2.976 36.832C2.68 37.496 2.532 38.288 2.532 39.208C2.532 40.168 2.8 40.912 3.336 41.44C3.872 41.96 4.664 42.22 5.712 42.22C6.232 42.22 6.756 42.156 7.284 42.028C7.82 41.892 8.412 41.688 9.06 41.416C9.18 41.368 9.28 41.344 9.36 41.344C9.488 41.344 9.584 41.392 9.648 41.488C9.712 41.584 9.744 41.708 9.744 41.86C9.744 42.348 9.48 42.708 8.952 42.94C8.384 43.188 7.792 43.372 7.176 43.492C6.568 43.604 5.988 43.66 5.436 43.66ZM10.2786 43.66C9.78256 43.66 9.38656 43.48 9.09056 43.12C8.79456 42.76 8.64656 42.288 8.64656 41.704C8.64656 41.064 8.79456 40.46 9.09056 39.892C9.38656 39.316 9.77856 38.856 10.2666 38.512C10.7626 38.16 11.2866 37.984 11.8386 37.984C12.0146 37.984 12.1306 38.02 12.1866 38.092C12.2506 38.156 12.3026 38.276 12.3426 38.452C12.5106 38.42 12.6866 38.404 12.8706 38.404C13.2626 38.404 13.4586 38.544 13.4586 38.824C13.4586 38.992 13.3986 39.392 13.2786 40.024C13.0946 40.944 13.0026 41.584 13.0026 41.944C13.0026 42.064 13.0306 42.16 13.0866 42.232C13.1506 42.304 13.2306 42.34 13.3266 42.34C13.4786 42.34 13.6626 42.244 13.8786 42.052C14.0946 41.852 14.3866 41.532 14.7546 41.092C14.8506 40.98 14.9586 40.924 15.0786 40.924C15.1826 40.924 15.2626 40.972 15.3186 41.068C15.3826 41.164 15.4146 41.296 15.4146 41.464C15.4146 41.784 15.3386 42.032 15.1866 42.208C14.8586 42.616 14.5106 42.96 14.1426 43.24C13.7746 43.52 13.4186 43.66 13.0746 43.66C12.8106 43.66 12.5666 43.572 12.3426 43.396C12.1266 43.212 11.9626 42.964 11.8506 42.652C11.4346 43.324 10.9106 43.66 10.2786 43.66ZM10.7106 42.448C10.8866 42.448 11.0546 42.344 11.2146 42.136C11.3746 41.928 11.4906 41.652 11.5626 41.308L12.0066 39.1C11.6706 39.108 11.3586 39.236 11.0706 39.484C10.7906 39.724 10.5666 40.044 10.3986 40.444C10.2306 40.844 10.1466 41.268 10.1466 41.716C10.1466 41.964 10.1946 42.148 10.2906 42.268C10.3946 42.388 10.5346 42.448 10.7106 42.448ZM19.1101 40.24C19.3341 40.24 19.4461 40.408 19.4461 40.744C19.4461 41.376 18.9501 41.692 17.9581 41.692C17.7661 41.692 17.4901 41.656 17.1301 41.584C17.2341 42.08 17.3181 42.632 17.3821 43.24C17.4541 43.84 17.4901 44.336 17.4901 44.728C17.4901 45.592 17.3501 46.252 17.0701 46.708C16.7901 47.164 16.4221 47.392 15.9661 47.392C15.3901 47.392 14.9781 46.984 14.7301 46.168C14.4901 45.352 14.3701 44.12 14.3701 42.472C14.3701 40.936 14.5341 39.38 14.8621 37.804C15.1981 36.22 15.6541 34.912 16.2301 33.88C16.8141 32.84 17.4541 32.32 18.1501 32.32C18.5261 32.32 18.8181 32.488 19.0261 32.824C19.2421 33.16 19.3501 33.612 19.3501 34.18C19.3501 36.06 18.2261 38.108 15.9781 40.324C15.8981 41.108 15.8581 41.796 15.8581 42.388C15.8581 43.212 15.8861 44.056 15.9421 44.92C15.9981 45.792 16.0901 46.228 16.2181 46.228C16.4581 46.228 16.5781 45.812 16.5781 44.98C16.5781 44.356 16.5341 43.752 16.4461 43.168C16.3661 42.584 16.2541 41.968 16.1101 41.32C16.1021 41.216 16.1341 41.084 16.2061 40.924C16.2861 40.764 16.3821 40.624 16.4941 40.504C16.6061 40.384 16.7061 40.324 16.7941 40.324C16.9541 40.324 17.1461 40.332 17.3701 40.348C17.4421 40.356 17.5261 40.36 17.6221 40.36C17.9421 40.36 18.2981 40.332 18.6901 40.276C18.7541 40.268 18.8221 40.26 18.8941 40.252C18.9661 40.244 19.0381 40.24 19.1101 40.24ZM17.8981 33.508C17.7541 33.508 17.5741 33.752 17.3581 34.24C17.1501 34.728 16.9421 35.376 16.7341 36.184C16.5261 36.984 16.3461 37.832 16.1941 38.728C16.8341 38 17.3261 37.244 17.6701 36.46C18.0141 35.668 18.1901 34.928 18.1981 34.24C18.1981 33.752 18.0981 33.508 17.8981 33.508ZM22.8368 41.284C22.9408 41.284 23.0208 41.332 23.0768 41.428C23.1408 41.524 23.1728 41.656 23.1728 41.824C23.1728 42.112 23.1048 42.36 22.9688 42.568C22.7448 42.912 22.4488 43.18 22.0808 43.372C21.7208 43.564 21.2888 43.66 20.7848 43.66C20.0168 43.66 19.4208 43.432 18.9968 42.976C18.5728 42.512 18.3608 41.888 18.3608 41.104C18.3608 40.552 18.4768 40.04 18.7088 39.568C18.9408 39.088 19.2608 38.708 19.6688 38.428C20.0848 38.148 20.5528 38.008 21.0728 38.008C21.5368 38.008 21.9088 38.148 22.1888 38.428C22.4688 38.7 22.6088 39.072 22.6088 39.544C22.6088 40.096 22.4088 40.572 22.0088 40.972C21.6168 41.364 20.9448 41.676 19.9928 41.908C20.1848 42.276 20.5088 42.46 20.9648 42.46C21.2928 42.46 21.5608 42.384 21.7688 42.232C21.9848 42.08 22.2328 41.824 22.5128 41.464C22.6088 41.344 22.7168 41.284 22.8368 41.284ZM20.8688 39.184C20.5728 39.184 20.3208 39.356 20.1128 39.7C19.9128 40.044 19.8128 40.46 19.8128 40.948L19.8128 40.972C20.2848 40.86 20.6568 40.692 20.9288 40.468C21.2008 40.244 21.3368 39.984 21.3368 39.688C21.3368 39.536 21.2928 39.416 21.2048 39.328C21.1248 39.232 21.0128 39.184 20.8688 39.184Z" fill="rgb(244.375,174.097,37.6745)" fill-rule="nonzero" />
		<path id="Cafe Street" d="" fill="rgb(244.375,174.097,37.6745)" fill-rule="nonzero" />
		<path id="Cafe Street" d="" fill="rgb(0,0,0)" fill-rule="nonzero" />
		<path id="Cafe Street" d="M29.9982 43.696C28.9342 43.696 28.0822 43.496 27.4422 43.096C26.8022 42.688 26.4822 42.068 26.4822 41.236C26.4822 40.796 26.5582 40.46 26.7102 40.228C26.8622 39.996 27.0862 39.88 27.3822 39.88C27.5982 39.88 27.7742 39.936 27.9102 40.048C28.0462 40.16 28.1142 40.304 28.1142 40.48C28.1142 40.64 28.1022 40.78 28.0782 40.9C28.0782 40.932 28.0702 40.988 28.0542 41.068C28.0462 41.148 28.0422 41.232 28.0422 41.32C28.0422 41.68 28.2222 41.948 28.5822 42.124C28.9502 42.3 29.4622 42.388 30.1182 42.388C30.7982 42.388 31.3302 42.268 31.7142 42.028C32.0982 41.78 32.2902 41.436 32.2902 40.996C32.2902 40.724 32.2022 40.492 32.0262 40.3C31.8502 40.1 31.6302 39.936 31.3662 39.808C31.1022 39.672 30.7302 39.508 30.2502 39.316C29.6342 39.076 29.1302 38.848 28.7382 38.632C28.3542 38.416 28.0222 38.124 27.7422 37.756C27.4702 37.38 27.3342 36.916 27.3342 36.364C27.3342 35.788 27.4862 35.276 27.7902 34.828C28.1022 34.38 28.5462 34.032 29.1222 33.784C29.7062 33.536 30.3902 33.412 31.1742 33.412C31.7582 33.412 32.2942 33.5 32.7822 33.676C33.2702 33.844 33.6582 34.104 33.9462 34.456C34.2422 34.808 34.3902 35.24 34.3902 35.752C34.3902 36.256 34.3142 36.636 34.1622 36.892C34.0102 37.148 33.7862 37.276 33.4902 37.276C33.2822 37.276 33.1062 37.212 32.9622 37.084C32.8262 36.956 32.7582 36.804 32.7582 36.628C32.7582 36.476 32.7702 36.336 32.7942 36.208C32.8182 35.968 32.8302 35.816 32.8302 35.752C32.8302 35.416 32.6662 35.16 32.3382 34.984C32.0102 34.808 31.6022 34.72 31.1142 34.72C30.4262 34.72 29.8982 34.848 29.5302 35.104C29.1702 35.352 28.9902 35.704 28.9902 36.16C28.9902 36.464 29.0822 36.724 29.2662 36.94C29.4582 37.156 29.6942 37.336 29.9742 37.48C30.2542 37.624 30.6462 37.796 31.1502 37.996C31.7582 38.244 32.2462 38.468 32.6142 38.668C32.9822 38.868 33.2942 39.14 33.5502 39.484C33.8142 39.828 33.9462 40.252 33.9462 40.756C33.9462 41.7 33.5862 42.428 32.8662 42.94C32.1542 43.444 31.1982 43.696 29.9982 43.696ZM40.2053 40.924C40.3093 40.924 40.3893 40.972 40.4453 41.068C40.5093 41.164 40.5413 41.296 40.5413 41.464C40.5413 41.784 40.4653 42.032 40.3133 42.208C39.9693 42.632 39.5933 42.98 39.1853 43.252C38.7773 43.524 38.3093 43.66 37.7813 43.66C36.1493 43.66 35.3333 42.512 35.3333 40.216C35.3333 39.864 35.3453 39.508 35.3693 39.148L34.9013 39.148C34.6613 39.148 34.4973 39.104 34.4093 39.016C34.3293 38.928 34.2893 38.788 34.2893 38.596C34.2893 38.148 34.4693 37.924 34.8293 37.924L35.5133 37.924C35.6493 37.044 35.8573 36.24 36.1373 35.512C36.4173 34.784 36.7533 34.204 37.1453 33.772C37.5453 33.34 37.9733 33.124 38.4293 33.124C38.7653 33.124 39.0293 33.272 39.2213 33.568C39.4133 33.864 39.5093 34.236 39.5093 34.684C39.5093 35.924 38.9893 37.004 37.9493 37.924L39.2933 37.924C39.4213 37.924 39.5133 37.952 39.5693 38.008C39.6253 38.064 39.6533 38.168 39.6533 38.32C39.6533 38.872 39.2013 39.148 38.2973 39.148L36.8333 39.148C36.8173 39.548 36.8093 39.86 36.8093 40.084C36.8093 40.916 36.9053 41.5 37.0973 41.836C37.2973 42.172 37.6093 42.34 38.0333 42.34C38.3773 42.34 38.6813 42.236 38.9453 42.028C39.2093 41.82 39.5213 41.508 39.8813 41.092C39.9773 40.98 40.0853 40.924 40.2053 40.924ZM38.1053 34.276C37.9853 34.276 37.8493 34.428 37.6973 34.732C37.5533 35.028 37.4133 35.444 37.2773 35.98C37.1493 36.508 37.0413 37.096 36.9533 37.744C37.4253 37.336 37.7773 36.88 38.0093 36.376C38.2493 35.864 38.3693 35.4 38.3693 34.984C38.3693 34.512 38.2813 34.276 38.1053 34.276ZM40.4163 43.66C40.1123 43.66 39.8963 43.5 39.7683 43.18C39.6483 42.86 39.5883 42.348 39.5883 41.644C39.5883 40.604 39.7363 39.616 40.0323 38.68C40.1043 38.448 40.2203 38.28 40.3803 38.176C40.5483 38.064 40.7803 38.008 41.0763 38.008C41.2363 38.008 41.3483 38.028 41.4123 38.068C41.4763 38.108 41.5083 38.184 41.5083 38.296C41.5083 38.424 41.4483 38.712 41.3283 39.16C41.2483 39.48 41.1843 39.76 41.1363 40C41.0883 40.24 41.0483 40.536 41.0163 40.888C41.2803 40.2 41.5763 39.64 41.9043 39.208C42.2323 38.776 42.5523 38.468 42.8643 38.284C43.1843 38.1 43.4763 38.008 43.7403 38.008C44.2603 38.008 44.5203 38.268 44.5203 38.788C44.5203 38.892 44.4843 39.144 44.4123 39.544C44.3483 39.864 44.3163 40.064 44.3163 40.144C44.3163 40.424 44.4163 40.564 44.6163 40.564C44.8403 40.564 45.1283 40.388 45.4803 40.036C45.5843 39.932 45.6923 39.88 45.8043 39.88C45.9083 39.88 45.9883 39.928 46.0443 40.024C46.1083 40.112 46.1403 40.232 46.1403 40.384C46.1403 40.68 46.0603 40.912 45.9003 41.08C45.6763 41.312 45.4123 41.512 45.1083 41.68C44.8123 41.84 44.4963 41.92 44.1603 41.92C43.7363 41.92 43.4123 41.812 43.1883 41.596C42.9723 41.38 42.8643 41.088 42.8643 40.72C42.8643 40.6 42.8763 40.48 42.9003 40.36C42.9163 40.2 42.9243 40.092 42.9243 40.036C42.9243 39.908 42.8803 39.844 42.7923 39.844C42.6723 39.844 42.5123 39.98 42.3123 40.252C42.1203 40.516 41.9283 40.868 41.7363 41.308C41.5443 41.748 41.3883 42.212 41.2683 42.7C41.1803 43.076 41.0763 43.332 40.9563 43.468C40.8443 43.596 40.6643 43.66 40.4163 43.66ZM50.3772 40.924C50.4812 40.924 50.5612 40.972 50.6172 41.068C50.6812 41.164 50.7132 41.296 50.7132 41.464C50.7132 41.784 50.6372 42.032 50.4852 42.208C50.1892 42.568 49.7692 42.9 49.2252 43.204C48.6892 43.508 48.1132 43.66 47.4972 43.66C46.6572 43.66 46.0052 43.432 45.5412 42.976C45.0772 42.52 44.8452 41.896 44.8452 41.104C44.8452 40.552 44.9612 40.04 45.1932 39.568C45.4252 39.088 45.7452 38.708 46.1532 38.428C46.5692 38.148 47.0372 38.008 47.5572 38.008C48.0212 38.008 48.3932 38.148 48.6732 38.428C48.9532 38.7 49.0932 39.072 49.0932 39.544C49.0932 40.096 48.8932 40.572 48.4932 40.972C48.1012 41.364 47.4332 41.676 46.4892 41.908C46.6892 42.276 47.0692 42.46 47.6292 42.46C47.9892 42.46 48.3972 42.336 48.8532 42.088C49.3172 41.832 49.7172 41.5 50.0532 41.092C50.1492 40.98 50.2572 40.924 50.3772 40.924ZM47.3532 39.184C47.0572 39.184 46.8052 39.356 46.5972 39.7C46.3972 40.044 46.2972 40.46 46.2972 40.948L46.2972 40.972C46.7692 40.86 47.1412 40.692 47.4132 40.468C47.6852 40.244 47.8212 39.984 47.8212 39.688C47.8212 39.536 47.7772 39.416 47.6892 39.328C47.6092 39.232 47.4972 39.184 47.3532 39.184ZM55.0882 40.924C55.1922 40.924 55.2722 40.972 55.3282 41.068C55.3922 41.164 55.4242 41.296 55.4242 41.464C55.4242 41.784 55.3482 42.032 55.1962 42.208C54.9002 42.568 54.4802 42.9 53.9362 43.204C53.4002 43.508 52.8242 43.66 52.2082 43.66C51.3682 43.66 50.7162 43.432 50.2522 42.976C49.7882 42.52 49.5562 41.896 49.5562 41.104C49.5562 40.552 49.6722 40.04 49.9042 39.568C50.1362 39.088 50.4562 38.708 50.8642 38.428C51.2802 38.148 51.7482 38.008 52.2682 38.008C52.7322 38.008 53.1042 38.148 53.3842 38.428C53.6642 38.7 53.8042 39.072 53.8042 39.544C53.8042 40.096 53.6042 40.572 53.2042 40.972C52.8122 41.364 52.1442 41.676 51.2002 41.908C51.4002 42.276 51.7802 42.46 52.3402 42.46C52.7002 42.46 53.1082 42.336 53.5642 42.088C54.0282 41.832 54.4282 41.5 54.7642 41.092C54.8602 40.98 54.9682 40.924 55.0882 40.924ZM52.0642 39.184C51.7682 39.184 51.5162 39.356 51.3082 39.7C51.1082 40.044 51.0082 40.46 51.0082 40.948L51.0082 40.972C51.4802 40.86 51.8522 40.692 52.1242 40.468C52.3962 40.244 52.5322 39.984 52.5322 39.688C52.5322 39.536 52.4882 39.416 52.4002 39.328C52.3202 39.232 52.2082 39.184 52.0642 39.184ZM56.4271 39.148C56.4111 39.548 56.4031 39.86 56.4031 40.084C56.4031 40.66 56.4311 41.112 56.4871 41.44C56.5511 41.76 56.6511 41.992 56.7871 42.136C56.9311 42.272 57.1271 42.34 57.3751 42.34C57.5031 42.34 57.6551 42.3 57.8311 42.22C58.0071 42.14 58.1671 42.036 58.3111 41.908C58.3991 41.828 58.4871 41.788 58.5751 41.788C58.6711 41.788 58.7471 41.844 58.8031 41.956C58.8671 42.06 58.8991 42.188 58.8991 42.34C58.8991 42.492 58.8671 42.64 58.8031 42.784C58.7471 42.928 58.6591 43.048 58.5391 43.144C58.1231 43.488 57.6511 43.66 57.1231 43.66C56.3631 43.66 55.8071 43.344 55.4551 42.712C55.1031 42.072 54.9271 41.24 54.9271 40.216C54.9271 39.864 54.9391 39.508 54.9631 39.148L54.4951 39.148C54.2551 39.148 54.0911 39.104 54.0031 39.016C53.9231 38.928 53.8831 38.788 53.8831 38.596C53.8831 38.148 54.0631 37.924 54.4231 37.924L55.1071 37.924C55.2431 37.044 55.4511 36.24 55.7311 35.512C56.0111 34.784 56.3471 34.204 56.7391 33.772C57.1391 33.34 57.5671 33.124 58.0231 33.124C58.3591 33.124 58.6231 33.272 58.8151 33.568C59.0071 33.864 59.1031 34.236 59.1031 34.684C59.1031 35.924 58.5831 37.004 57.5431 37.924L58.8871 37.924C59.0151 37.924 59.1071 37.952 59.1631 38.008C59.2191 38.064 59.2471 38.168 59.2471 38.32C59.2471 38.872 58.7951 39.148 57.8911 39.148L56.4271 39.148ZM57.6991 34.276C57.5791 34.276 57.4431 34.428 57.2911 34.732C57.1471 35.028 57.0071 35.444 56.8711 35.98C56.7431 36.508 56.6351 37.096 56.5471 37.744C57.0191 37.336 57.3711 36.88 57.6031 36.376C57.8431 35.864 57.9631 35.4 57.9631 34.984C57.9631 34.512 57.8751 34.276 57.6991 34.276Z" fill="rgb(244.375,174.097,37.6745)" fill-rule="nonzero" />
		<path id="Cafe Street" d="M29.9982 43.696C28.9342 43.696 28.0822 43.496 27.4422 43.096C26.8022 42.688 26.4822 42.068 26.4822 41.236C26.4822 40.796 26.5582 40.46 26.7102 40.228C26.8622 39.996 27.0862 39.88 27.3822 39.88C27.5982 39.88 27.7742 39.936 27.9102 40.048C28.0462 40.16 28.1142 40.304 28.1142 40.48C28.1142 40.64 28.1022 40.78 28.0782 40.9C28.0782 40.932 28.0702 40.988 28.0542 41.068C28.0462 41.148 28.0422 41.232 28.0422 41.32C28.0422 41.68 28.2222 41.948 28.5822 42.124C28.9502 42.3 29.4622 42.388 30.1182 42.388C30.7982 42.388 31.3302 42.268 31.7142 42.028C32.0982 41.78 32.2902 41.436 32.2902 40.996C32.2902 40.724 32.2022 40.492 32.0262 40.3C31.8502 40.1 31.6302 39.936 31.3662 39.808C31.1022 39.672 30.7302 39.508 30.2502 39.316C29.6342 39.076 29.1302 38.848 28.7382 38.632C28.3542 38.416 28.0222 38.124 27.7422 37.756C27.4702 37.38 27.3342 36.916 27.3342 36.364C27.3342 35.788 27.4862 35.276 27.7902 34.828C28.1022 34.38 28.5462 34.032 29.1222 33.784C29.7062 33.536 30.3902 33.412 31.1742 33.412C31.7582 33.412 32.2942 33.5 32.7822 33.676C33.2702 33.844 33.6582 34.104 33.9462 34.456C34.2422 34.808 34.3902 35.24 34.3902 35.752C34.3902 36.256 34.3142 36.636 34.1622 36.892C34.0102 37.148 33.7862 37.276 33.4902 37.276C33.2822 37.276 33.1062 37.212 32.9622 37.084C32.8262 36.956 32.7582 36.804 32.7582 36.628C32.7582 36.476 32.7702 36.336 32.7942 36.208C32.8182 35.968 32.8302 35.816 32.8302 35.752C32.8302 35.416 32.6662 35.16 32.3382 34.984C32.0102 34.808 31.6022 34.72 31.1142 34.72C30.4262 34.72 29.8982 34.848 29.5302 35.104C29.1702 35.352 28.9902 35.704 28.9902 36.16C28.9902 36.464 29.0822 36.724 29.2662 36.94C29.4582 37.156 29.6942 37.336 29.9742 37.48C30.2542 37.624 30.6462 37.796 31.1502 37.996C31.7582 38.244 32.2462 38.468 32.6142 38.668C32.9822 38.868 33.2942 39.14 33.5502 39.484C33.8142 39.828 33.9462 40.252 33.9462 40.756C33.9462 41.7 33.5862 42.428 32.8662 42.94C32.1542 43.444 31.1982 43.696 29.9982 43.696ZM40.2053 40.924C40.3093 40.924 40.3893 40.972 40.4453 41.068C40.5093 41.164 40.5413 41.296 40.5413 41.464C40.5413 41.784 40.4653 42.032 40.3133 42.208C39.9693 42.632 39.5933 42.98 39.1853 43.252C38.7773 43.524 38.3093 43.66 37.7813 43.66C36.1493 43.66 35.3333 42.512 35.3333 40.216C35.3333 39.864 35.3453 39.508 35.3693 39.148L34.9013 39.148C34.6613 39.148 34.4973 39.104 34.4093 39.016C34.3293 38.928 34.2893 38.788 34.2893 38.596C34.2893 38.148 34.4693 37.924 34.8293 37.924L35.5133 37.924C35.6493 37.044 35.8573 36.24 36.1373 35.512C36.4173 34.784 36.7533 34.204 37.1453 33.772C37.5453 33.34 37.9733 33.124 38.4293 33.124C38.7653 33.124 39.0293 33.272 39.2213 33.568C39.4133 33.864 39.5093 34.236 39.5093 34.684C39.5093 35.924 38.9893 37.004 37.9493 37.924L39.2933 37.924C39.4213 37.924 39.5133 37.952 39.5693 38.008C39.6253 38.064 39.6533 38.168 39.6533 38.32C39.6533 38.872 39.2013 39.148 38.2973 39.148L36.8333 39.148C36.8173 39.548 36.8093 39.86 36.8093 40.084C36.8093 40.916 36.9053 41.5 37.0973 41.836C37.2973 42.172 37.6093 42.34 38.0333 42.34C38.3773 42.34 38.6813 42.236 38.9453 42.028C39.2093 41.82 39.5213 41.508 39.8813 41.092C39.9773 40.98 40.0853 40.924 40.2053 40.924ZM38.1053 34.276C37.9853 34.276 37.8493 34.428 37.6973 34.732C37.5533 35.028 37.4133 35.444 37.2773 35.98C37.1493 36.508 37.0413 37.096 36.9533 37.744C37.4253 37.336 37.7773 36.88 38.0093 36.376C38.2493 35.864 38.3693 35.4 38.3693 34.984C38.3693 34.512 38.2813 34.276 38.1053 34.276ZM40.4163 43.66C40.1123 43.66 39.8963 43.5 39.7683 43.18C39.6483 42.86 39.5883 42.348 39.5883 41.644C39.5883 40.604 39.7363 39.616 40.0323 38.68C40.1043 38.448 40.2203 38.28 40.3803 38.176C40.5483 38.064 40.7803 38.008 41.0763 38.008C41.2363 38.008 41.3483 38.028 41.4123 38.068C41.4763 38.108 41.5083 38.184 41.5083 38.296C41.5083 38.424 41.4483 38.712 41.3283 39.16C41.2483 39.48 41.1843 39.76 41.1363 40C41.0883 40.24 41.0483 40.536 41.0163 40.888C41.2803 40.2 41.5763 39.64 41.9043 39.208C42.2323 38.776 42.5523 38.468 42.8643 38.284C43.1843 38.1 43.4763 38.008 43.7403 38.008C44.2603 38.008 44.5203 38.268 44.5203 38.788C44.5203 38.892 44.4843 39.144 44.4123 39.544C44.3483 39.864 44.3163 40.064 44.3163 40.144C44.3163 40.424 44.4163 40.564 44.6163 40.564C44.8403 40.564 45.1283 40.388 45.4803 40.036C45.5843 39.932 45.6923 39.88 45.8043 39.88C45.9083 39.88 45.9883 39.928 46.0443 40.024C46.1083 40.112 46.1403 40.232 46.1403 40.384C46.1403 40.68 46.0603 40.912 45.9003 41.08C45.6763 41.312 45.4123 41.512 45.1083 41.68C44.8123 41.84 44.4963 41.92 44.1603 41.92C43.7363 41.92 43.4123 41.812 43.1883 41.596C42.9723 41.38 42.8643 41.088 42.8643 40.72C42.8643 40.6 42.8763 40.48 42.9003 40.36C42.9163 40.2 42.9243 40.092 42.9243 40.036C42.9243 39.908 42.8803 39.844 42.7923 39.844C42.6723 39.844 42.5123 39.98 42.3123 40.252C42.1203 40.516 41.9283 40.868 41.7363 41.308C41.5443 41.748 41.3883 42.212 41.2683 42.7C41.1803 43.076 41.0763 43.332 40.9563 43.468C40.8443 43.596 40.6643 43.66 40.4163 43.66ZM50.3772 40.924C50.4812 40.924 50.5612 40.972 50.6172 41.068C50.6812 41.164 50.7132 41.296 50.7132 41.464C50.7132 41.784 50.6372 42.032 50.4852 42.208C50.1892 42.568 49.7692 42.9 49.2252 43.204C48.6892 43.508 48.1132 43.66 47.4972 43.66C46.6572 43.66 46.0052 43.432 45.5412 42.976C45.0772 42.52 44.8452 41.896 44.8452 41.104C44.8452 40.552 44.9612 40.04 45.1932 39.568C45.4252 39.088 45.7452 38.708 46.1532 38.428C46.5692 38.148 47.0372 38.008 47.5572 38.008C48.0212 38.008 48.3932 38.148 48.6732 38.428C48.9532 38.7 49.0932 39.072 49.0932 39.544C49.0932 40.096 48.8932 40.572 48.4932 40.972C48.1012 41.364 47.4332 41.676 46.4892 41.908C46.6892 42.276 47.0692 42.46 47.6292 42.46C47.9892 42.46 48.3972 42.336 48.8532 42.088C49.3172 41.832 49.7172 41.5 50.0532 41.092C50.1492 40.98 50.2572 40.924 50.3772 40.924ZM47.3532 39.184C47.0572 39.184 46.8052 39.356 46.5972 39.7C46.3972 40.044 46.2972 40.46 46.2972 40.948L46.2972 40.972C46.7692 40.86 47.1412 40.692 47.4132 40.468C47.6852 40.244 47.8212 39.984 47.8212 39.688C47.8212 39.536 47.7772 39.416 47.6892 39.328C47.6092 39.232 47.4972 39.184 47.3532 39.184ZM55.0882 40.924C55.1922 40.924 55.2722 40.972 55.3282 41.068C55.3922 41.164 55.4242 41.296 55.4242 41.464C55.4242 41.784 55.3482 42.032 55.1962 42.208C54.9002 42.568 54.4802 42.9 53.9362 43.204C53.4002 43.508 52.8242 43.66 52.2082 43.66C51.3682 43.66 50.7162 43.432 50.2522 42.976C49.7882 42.52 49.5562 41.896 49.5562 41.104C49.5562 40.552 49.6722 40.04 49.9042 39.568C50.1362 39.088 50.4562 38.708 50.8642 38.428C51.2802 38.148 51.7482 38.008 52.2682 38.008C52.7322 38.008 53.1042 38.148 53.3842 38.428C53.6642 38.7 53.8042 39.072 53.8042 39.544C53.8042 40.096 53.6042 40.572 53.2042 40.972C52.8122 41.364 52.1442 41.676 51.2002 41.908C51.4002 42.276 51.7802 42.46 52.3402 42.46C52.7002 42.46 53.1082 42.336 53.5642 42.088C54.0282 41.832 54.4282 41.5 54.7642 41.092C54.8602 40.98 54.9682 40.924 55.0882 40.924ZM52.0642 39.184C51.7682 39.184 51.5162 39.356 51.3082 39.7C51.1082 40.044 51.0082 40.46 51.0082 40.948L51.0082 40.972C51.4802 40.86 51.8522 40.692 52.1242 40.468C52.3962 40.244 52.5322 39.984 52.5322 39.688C52.5322 39.536 52.4882 39.416 52.4002 39.328C52.3202 39.232 52.2082 39.184 52.0642 39.184ZM56.4271 39.148C56.4111 39.548 56.4031 39.86 56.4031 40.084C56.4031 40.66 56.4311 41.112 56.4871 41.44C56.5511 41.76 56.6511 41.992 56.7871 42.136C56.9311 42.272 57.1271 42.34 57.3751 42.34C57.5031 42.34 57.6551 42.3 57.8311 42.22C58.0071 42.14 58.1671 42.036 58.3111 41.908C58.3991 41.828 58.4871 41.788 58.5751 41.788C58.6711 41.788 58.7471 41.844 58.8031 41.956C58.8671 42.06 58.8991 42.188 58.8991 42.34C58.8991 42.492 58.8671 42.64 58.8031 42.784C58.7471 42.928 58.6591 43.048 58.5391 43.144C58.1231 43.488 57.6511 43.66 57.1231 43.66C56.3631 43.66 55.8071 43.344 55.4551 42.712C55.1031 42.072 54.9271 41.24 54.9271 40.216C54.9271 39.864 54.9391 39.508 54.9631 39.148L54.4951 39.148C54.2551 39.148 54.0911 39.104 54.0031 39.016C53.9231 38.928 53.8831 38.788 53.8831 38.596C53.8831 38.148 54.0631 37.924 54.4231 37.924L55.1071 37.924C55.2431 37.044 55.4511 36.24 55.7311 35.512C56.0111 34.784 56.3471 34.204 56.7391 33.772C57.1391 33.34 57.5671 33.124 58.0231 33.124C58.3591 33.124 58.6231 33.272 58.8151 33.568C59.0071 33.864 59.1031 34.236 59.1031 34.684C59.1031 35.924 58.5831 37.004 57.5431 37.924L58.8871 37.924C59.0151 37.924 59.1071 37.952 59.1631 38.008C59.2191 38.064 59.2471 38.168 59.2471 38.32C59.2471 38.872 58.7951 39.148 57.8911 39.148L56.4271 39.148ZM57.6991 34.276C57.5791 34.276 57.4431 34.428 57.2911 34.732C57.1471 35.028 57.0071 35.444 56.8711 35.98C56.7431 36.508 56.6351 37.096 56.5471 37.744C57.0191 37.336 57.3711 36.88 57.6031 36.376C57.8431 35.864 57.9631 35.4 57.9631 34.984C57.9631 34.512 57.8751 34.276 57.6991 34.276Z" fill="rgb(46.75,32.6432,5.25937)" fill-rule="nonzero" />
	</g>
</svg>
